<svg xmlns="http://www.w3.org/2000/svg" xml:space="preserve" fill="#fff" viewBox="0 0 298 298"><path d="M289.5 140.5h-24.6l11.03-11.03a7.5 7.5 0 1 0-10.61-10.6l-21.64 21.63h-36.37l16.18-17.4a7.5 7.5 0 0 0-4.72-12.55c-.96-.05-21.5 0-21.5 0l24.04-24.05h30.19a7.5 7.5 0 1 0 0-15h-15.19l17.7-17.69a7.5 7.5 0 0 0 0-10.6 7.7 7.7 0 0 0-10.78 0L225.17 61.1V45.5a7.5 7.5 0 1 0-15 0v30.6l-24.84 25-.41-22.64c0-.04.03-.07.03-.1a7.45 7.45 0 0 0-2.07-5.06 7.69 7.69 0 0 0-10.76-.2l-15.95 15.23V53.1l21.47-21.3a7.5 7.5 0 0 0 .08-10.61 7.65 7.65 0 0 0-10.73 0l-10.82 10.7V7.5a7.5 7.5 0 1 0-15 0v24.4l-10.53-10.7a7.4 7.4 0 0 0-10.53 0 7.5 7.5 0 0 0-.12 10.6l21.18 21.3v35.43l-16.18-15.48a7.4 7.4 0 0 0-12.43 4.25 7.7 7.7 0 0 0-.2 1.8l-.1 21.24-25.1-24.95V45.5a7.5 7.5 0 1 0-15 0v14.9L55.15 43.2a7.4 7.4 0 0 0-10.52 0 7.5 7.5 0 0 0 .04 10.61L62.39 71.5H46.5a7.5 7.5 0 1 0 0 15h30.9l24.74 24.74-23.06.84c-4.02.14-7.53 3.43-7.56 7.41 0 .12-.35.23-.35.34v.01l.34.03a7.67 7.67 0 0 0 2.4 5.15l15.84 15.48H55.02L33.4 118.86a7.5 7.5 0 0 0-10.61 10.6l11.03 11.04H8.5a7.5 7.5 0 1 0 0 15h25.02l-10.74 10.74a7.5 7.5 0 1 0 10.6 10.6l21.35-21.34h35.03l-15.25 16.4A7.5 7.5 0 0 0 80 184.5h.22l22-.12L77.1 209.5H46.5a7.5 7.5 0 1 0 0 15h15.6l-17.4 17.4a7.5 7.5 0 0 0 5.3 12.8 7.1 7.1 0 0 0 5.14-2.2l17.03-17.18v15.18a7.5 7.5 0 1 0 15 0v-30.18l25.44-25.28.98 24.39a7.48 7.48 0 0 0 7.53 7.22 7.47 7.47 0 0 0 4.31-1.54c1.07-.78 15.74-15.81 15.74-15.81v35.38l-20.97 21.14a7.5 7.5 0 0 0 .08 10.6 7.57 7.57 0 0 0 5.34 2.2c1.92 0 3.7-.73 5.16-2.2l10.39-10.53v24.61a7.5 7.5 0 1 0 15 0v-25.31l11.4 11.24a7.67 7.67 0 0 0 10.73 0 7.5 7.5 0 0 0-.14-10.61l-22-21.84v-35.7s13.74 12.9 15.9 14.97c2.17 2.08 3.95 3.25 6.53 3.25h.05c4.14 0 7.48-3.6 7.45-7.74l-.3-23.7 24.38 24.55v30.89a7.5 7.5 0 1 0 15 0v-15.9l18.06 17.9a7.67 7.67 0 0 0 10.73 0 7.5 7.5 0 0 0 .02-10.6l-17.38-17.4h14.9a7.5 7.5 0 1 0 0-15h-29.9l-25.74-25.74 23.06-.83.25-.02.09-.01a7.5 7.5 0 0 0 3.73-13.57l-13.85-13.83h34.83l21.35 21.35a7.48 7.48 0 0 0 10.6 0 7.5 7.5 0 0 0 0-10.6L265.2 155.5h24.31a7.5 7.5 0 1 0 0-15zm-88.7-15.02-13.98 15.02h-19.5l15-15 18.47-.02zm-30.59-29.7.36 20-14.4 14.32v-20.94l14.04-13.38zm-42.95.08 13.9 13.33v20.2l-13.92-14 .02-19.53zm-30.4 30.58 19.76-.7 14.77 14.76h-20.3l-14.23-14.06zm.39 43.04 13-13.98h20.85l-13.84 13.84-20.01.14zm30.61 32.12-.85-21.04 14.16-14.24v21.6l-13.3 13.68zm42.96-.34-14.65-13.47V165.6l14.44 14.36.2 21.3zm30.17-32.7-19.61.71-13.77-13.77h20.29l13.1 13.06z"/></svg>