<svg xmlns="http://www.w3.org/2000/svg" version="1.0" viewBox="0 0 600 400"><path fill="#fff" fill-rule="evenodd" d="M0 0h600v400.01H0z"/><path fill="#09c" d="M600 341.79 86.03 0H0v56.95L515.9 400H600v-58.23"/><path fill="#005bbf" d="M296.61 305.22c-60.13 0-58.18-56.59-58.18-56.59V161.8h116.36v86.84s2.04 56.59-58.18 56.59"/><path fill="none" stroke="#000" stroke-width="1.01" d="M296.61 305.17c-60.13 0-58.18-56.58-58.18-56.58v-86.83h116.36v86.84s2.04 56.57-58.18 56.57z"/><path fill="#d81126" d="M296.1 107.15s-12.4-6.04-24.14 2.85c0 0-21.12-3.05-22.67 17.18-.07.82-.2 2.33.18 2.77.38.44.76 1.25.76 1.82 0 .56.37.88.5 1.13.13.25.44.63.5 1.7.07 1.06-.12 1.57.89 2.64 1 1.06 1.06 4.15 1.06 5.03 0 .87.63 3.33 1.07 3.83a5.1 5.1 0 0 1 1.2 2.83c0 1.07.43 4.02.24 4.77-.18.76 1.14 1.7 2.33 2.08 1.2.38 16.03 5.22 37.66 4.84 21.63-.38 29.41-1.53 38.35-4.78 1.38-.5 1.63-1.63 1.5-2.26-.12-.63 0-2.64.38-3.14s2.9-4.53 2.4-5.28c-.51-.76-.51-2.4 0-3.02.5-.63 2.07-3.65 2.38-4.9.31-1.26.35-2.74.93-3.17.58-.44.77-1.86.88-2.15a4.2 4.2 0 0 1 1.12-1.64s1.1-5.11.42-7.63c-.67-2.51-4.44-13.33-19.78-11.06 0 0-11.4-8.64-28.16-4.45"/><path fill="none" stroke="#000" stroke-width="1.51" d="M296.1 107.12s-12.4-6.04-24.14 2.85c0 0-21.12-3.05-22.67 17.18-.07.82-.2 2.33.18 2.77.38.44.76 1.26.76 1.82 0 .57.37.88.5 1.13.13.25.44.63.5 1.7.07 1.07-.12 1.57.89 2.64 1 1.07 1.06 4.15 1.06 5.03 0 .88.63 3.33 1.07 3.83a5.1 5.1 0 0 1 1.2 2.83c0 1.07.43 4.02.24 4.77-.18.76 1.14 1.7 2.33 2.08 1.2.38 16.03 5.22 37.66 4.84 21.63-.38 29.41-1.53 38.35-4.78 1.38-.5 1.63-1.63 1.5-2.26-.12-.63 0-2.64.38-3.14s2.9-4.53 2.4-5.28c-.51-.76-.51-2.4 0-3.02.5-.63 2.07-3.65 2.38-4.9.31-1.26.35-2.73.93-3.17.58-.44.77-1.85.88-2.15a4.2 4.2 0 0 1 1.12-1.64s1.1-5.11.42-7.62c-.67-2.52-4.44-13.33-19.78-11.07 0 0-11.4-8.63-28.16-4.44z"/><path fill="#bcac0b" d="M337.6 144.8c-47.1-14.92-83.41-.74-83.41-.74s.33 1.64.75 2.15c.42.5 1 1.67 1 2.55 0 .88.1 2.14.1 2.81 0 .67-.52 3.68 2.16 3.64 0 0 32.75-12.84 75.38.66 0 0 1.17-1.04 1.21-2.55.04-1.51.3-3.1.88-3.94.59-.84 1.93-3.46 1.93-4.58"/><path fill="#c8b100" fill-opacity=".94" d="M293.93 223.33h-20.45s-2.02 18.27 13.74 23.8v1.68h3.36v2.18s-5.79 5.2-.76 11.15v1.84h.84v2.93h.92v4.78s-.75 17.06-17.48 25.23v1h44.66v-1c-16.72-8.17-17.48-25.23-17.48-25.23v-4.78h.92v-2.93h.84v-1.84c5.03-5.96-.76-11.15-.76-11.15v-2.18h3.36v-1.68c15.76-5.53 13.74-23.8 13.74-23.8h-25.45"/><path fill="none" stroke="#000" stroke-width="1.01" d="M293.93 223.29h-20.45s-2.02 18.27 13.74 23.8v1.68h3.36v2.18s-5.79 5.2-.76 11.15v1.84h.84v2.93h.92v4.78s-.75 17.06-17.48 25.23v1h44.66v-1c-16.72-8.17-17.48-25.23-17.48-25.23v-4.78h.92v-2.93h.84v-1.84c5.03-5.96-.76-11.15-.76-11.15v-2.18h3.36v-1.68c15.76-5.53 13.74-23.8 13.74-23.8h-25.45z"/><path fill="none" stroke="#000" stroke-width=".25" d="M286.55 246.84h19.74m-19.07 1.5h18.4m-15.04 2.52h11.56m-12.32 11.44h13.2m-12.32 1.4h11.53m-11.53 2.86h11.48m-18.52 23.15h25.52m-32.73 5.91h39.99m-41.5.88h43.05"/><path fill="#ccc" d="M296.6 222.25a13.04 13.04 0 1 0 0-26.09 13.04 13.04 0 0 0 0 26.09"/><path fill="none" stroke="#000" stroke-width="1.01" d="M296.6 222.21a13.04 13.04 0 1 0 0-26.08 13.04 13.04 0 0 0 0 26.08z"/><path fill="#ccc" d="M266.25 183.93h-8.13v-8.13h-7.2v8.13h-8.14v7.2h8.13v8.14h7.2v-8.13h8.14v-7.2"/><path fill="none" stroke="#000" stroke-width="1.01" d="M266.25 183.9h-8.13v-8.13h-7.2v8.13h-8.14v7.2h8.13v8.14h7.2v-8.13h8.14v-7.21"/><path fill="#ccc" d="M350.76 183.93h-8.13v-8.13h-7.21v8.13h-8.13v7.2h8.13v8.14h7.2v-8.13h8.14v-7.2"/><path fill="none" stroke="#000" stroke-width="1.01" d="M350.76 183.9h-8.13v-8.13h-7.21v8.13h-8.13v7.2h8.13v8.14h7.2v-8.13h8.14v-7.21"/><path fill="#ccc" d="M307.94 173.71h-8.13v-8.13h-7.2v8.13h-8.14v7.21h8.13v8.13h7.2v-8.13h8.14v-7.2"/><path fill="none" stroke="#000" stroke-width="1.01" d="M307.94 173.68h-8.13v-8.13h-7.2v8.13h-8.14v7.2h8.13v8.14h7.2v-8.13h8.14v-7.21"/><path fill="#ccc" d="M266.25 219.14h-8.13V211h-7.2v8.13h-8.14v7.2h8.13v8.14h7.2v-8.13h8.14v-7.21"/><path fill="none" stroke="#000" stroke-width="1.01" d="M266.25 219.1h-8.13v-8.13h-7.2v8.13h-8.14v7.2h8.13v8.14h7.2v-8.13h8.14v-7.21"/><path fill="#ccc" d="M350.76 219.14h-8.13V211h-7.21v8.13h-8.13v7.2h8.13v8.14h7.2v-8.13h8.14v-7.21"/><path fill="none" stroke="#000" stroke-width="1.01" d="M350.76 219.1h-8.13v-8.13h-7.21v8.13h-8.13v7.2h8.13v8.14h7.2v-8.13h8.14v-7.21"/><path fill="#ccc" d="M266.25 254.69h-8.13v-8.13h-7.2v8.13h-8.14v7.2h8.13v8.14h7.2v-8.13h8.14v-7.21"/><path fill="none" stroke="#000" stroke-width="1.01" d="M266.25 254.65h-8.13v-8.13h-7.2v8.13h-8.14v7.2h8.13v8.14h7.2v-8.13h8.14v-7.21"/><path fill="#ccc" d="M350.76 254.69h-8.13v-8.13h-7.21v8.13h-8.13v7.2h8.13v8.14h7.2v-8.13h8.14v-7.21"/><path fill="none" stroke="#000" stroke-width="1.01" d="M350.76 254.65h-8.13v-8.13h-7.21v8.13h-8.13v7.2h8.13v8.14h7.2v-8.13h8.14v-7.21"/><path fill="#005bbf" d="M296.49 89.73a7.82 7.82 0 1 0 0-15.65 7.82 7.82 0 0 0 0 15.65"/><path fill="none" stroke="#000" stroke-width="1.01" d="M296.49 89.71a7.82 7.82 0 1 0 0-15.65 7.82 7.82 0 0 0 0 15.65z"/><path fill="#fc0" d="M303.79 80.53h-6.41V70.16h2.45V68.1h-2.45v-2.46h-2.08v2.46h-2.45v2.07h2.45v10.37h-6.1v1.39h6.1v.06h2.08v-.06h6.41v-1.39"/><path fill="#bcac0b" stroke="#000" stroke-width=".5" d="M303.79 80.51h-6.41V70.14h2.45v-2.08h-2.45v-2.45h-2.08v2.45h-2.45v2.08h2.45v10.37h-6.1v1.38h6.1v.07h2.08v-.07h6.41v-1.38"/><path fill="#fc0" d="M265.17 99.1s5.78-.68 9.13.66c0 0-3.84 4.37-3.01 10.15.42 2.93 1 4.44 1.84 5.86.84 1.43 1.76 4.36 1.26 6.71h1.09s1.09-4.78-.75-7.46a9.98 9.98 0 0 1-.93-10.23c1.85-3.85 4.53-5.36 4.53-5.36 3.1 1.26 9.64.08 11.48-1.26 1.84-1.34 2.77-3.18-.67-3.35-3.43-.17-9.3-.09-13.32 2.93 0 0-2.1-2.43-12.58-1.26-10.48 1.18-18.05 5.65-20.37 15.1-1.17 4.77 3.27 14.83 7.38 17.26 0 0-.13-1.63.3-2.8 0 0-7-7.85-4.91-15.14 2.1-7.3 10.48-12.07 19.53-11.82"/><path fill="#bcac0b" stroke="#000" stroke-width=".65" d="M265.17 99.07s5.78-.67 9.13.67c0 0-3.84 4.37-3.01 10.14.42 2.94 1 4.44 1.84 5.87.84 1.42 1.76 4.36 1.26 6.7h1.09s1.09-4.77-.75-7.46a9.96 9.96 0 0 1-.93-10.22c1.85-3.86 4.53-5.36 4.53-5.36 3.1 1.25 9.64.08 11.48-1.26 1.84-1.35 2.77-3.19-.67-3.36-3.43-.16-9.3-.08-13.32 2.94 0 0-2.1-2.43-12.58-1.26-10.48 1.17-18.05 5.65-20.37 15.09-1.17 4.78 3.27 14.83 7.38 17.26 0 0-.13-1.63.3-2.8 0 0-7-7.84-4.91-15.13 2.1-7.3 10.48-12.07 19.53-11.82z"/><path fill="#fff" d="M284.86 97.65c1.81-.14 3.26-.46 3.24-.7-.02-.25-1.5-.33-3.31-.18s-3.26.46-3.24.7c.01.25 1.5.33 3.31.18"/><path fill="none" stroke="#000" stroke-width=".65" d="M278.26 99.37s-2.07 1.95 0 0c2.08-1.95 6.41-3.27 8.87-2.7 2.45.56-.45.88-1.26.94s-2.46.38-4.84 0"/><path fill="#fc0" d="M327.7 99.72s-5.78-.66-9.13.68c0 0 3.84 4.36 3.01 10.14-.42 2.93-1 4.44-1.84 5.87-.84 1.42-1.76 4.36-1.26 6.7h-1.09s-1.09-4.77.75-7.46a9.96 9.96 0 0 0 .93-10.22c-1.85-3.86-4.53-5.37-4.53-5.37-3.1 1.26-9.64.08-11.48-1.26-1.84-1.34-2.77-3.18.67-3.35 3.44-.17 9.3-.08 13.33 2.93 0 0 2.1-2.43 12.57-1.25 10.48 1.17 18.05 5.65 20.37 15.08 1.17 4.78-3.27 14.84-7.38 17.27 0 0 .13-1.63-.3-2.8 0 0 7-7.84 4.91-15.14-2.1-7.29-10.47-12.07-19.53-11.82"/><path fill="#bcac0b" stroke="#000" stroke-width=".65" d="M327.7 99.7s-5.78-.67-9.13.67c0 0 3.84 4.37 3.01 10.14-.42 2.94-1 4.45-1.84 5.87-.84 1.42-1.76 4.36-1.26 6.7h-1.09s-1.09-4.77.75-7.45c1.85-2.69 2.77-6.37.93-10.23-1.85-3.86-4.53-5.36-4.53-5.36-3.1 1.25-9.64.08-11.48-1.26-1.84-1.34-2.77-3.19.67-3.35 3.44-.17 9.3-.09 13.33 2.93 0 0 2.1-2.43 12.57-1.26 10.48 1.17 18.05 5.65 20.37 15.09 1.17 4.78-3.27 14.83-7.38 17.27 0 0 .13-1.64-.3-2.81 0 0 7-7.84 4.91-15.13-2.1-7.3-10.47-12.07-19.53-11.82z"/><path fill="#fff" d="M308 98.28c-1.8-.14-3.26-.46-3.24-.7.02-.25 1.5-.33 3.31-.18 1.81.14 3.27.46 3.25.7-.02.25-1.5.33-3.32.18"/><path fill="none" stroke="#000" stroke-width=".65" d="M314.6 99.99s2.08 1.95 0 0c-2.07-1.95-6.41-3.27-8.86-2.7-2.46.56.44.88 1.25.94.82.06 2.46.38 4.85 0"/><path fill="#fc0" d="M291.07 93.31v22.3c-.25 2.18 2.68 5.28 4.78 6.2 0 0 4.94-1.67 5.28-6.2V92.05h-1.68v20.37c-.08 2.1-1.42 5.87-3.27 6.46 0 0-3.6-.59-3.77-6.37V92.64l-1.34.67"/><path fill="#bcac0b" stroke="#000" stroke-width=".65" d="M291.07 93.29v22.3c-.25 2.17 2.68 5.28 4.78 6.2 0 0 4.94-1.68 5.28-6.2V92.03h-1.68v20.37c-.08 2.1-1.42 5.87-3.27 6.45 0 0-3.6-.58-3.77-6.37V92.62l-1.34.67"/><path fill="#fff" d="M241.74 123.8a2.67 2.67 0 1 0 0-5.33 2.67 2.67 0 0 0 0 5.34"/><path fill="none" stroke="#000" stroke-width="1.01" d="M241.74 123.78a2.67 2.67 0 1 0 0-5.33 2.67 2.67 0 0 0 0 5.33z"/><path fill="#fff" d="M240.07 117.68a2.67 2.67 0 1 0 0-5.34 2.67 2.67 0 0 0 0 5.34"/><path fill="none" stroke="#000" stroke-width="1.01" d="M240.07 117.65a2.67 2.67 0 1 0 0-5.33 2.67 2.67 0 0 0 0 5.33z"/><path fill="#fff" d="M240.95 110.27a2.67 2.67 0 1 0 0-5.34 2.67 2.67 0 0 0 0 5.34"/><path fill="none" stroke="#000" stroke-width="1.01" d="M240.95 110.24a2.67 2.67 0 1 0 0-5.33 2.67 2.67 0 0 0 0 5.33z"/><path fill="#fff" d="M245.1 104.1a2.67 2.67 0 1 0 0-5.33 2.67 2.67 0 0 0 0 5.34"/><path fill="none" stroke="#000" stroke-width="1.01" d="M245.1 104.08a2.67 2.67 0 1 0 0-5.33 2.67 2.67 0 0 0 0 5.33z"/><path fill="#fff" d="M250 99.6a2.67 2.67 0 1 0 0-5.33 2.67 2.67 0 0 0 0 5.33"/><path fill="none" stroke="#000" stroke-width="1.01" d="M250 99.58a2.67 2.67 0 1 0 0-5.33 2.67 2.67 0 0 0 0 5.33z"/><path fill="#fff" d="M256.32 97.1a2.67 2.67 0 1 0 0-5.34 2.67 2.67 0 0 0 0 5.33"/><path fill="none" stroke="#000" stroke-width="1.01" d="M256.32 97.07a2.67 2.67 0 1 0 0-5.33 2.67 2.67 0 0 0 0 5.33z"/><path fill="#fff" d="M262.92 95.9a2.67 2.67 0 1 0 0-5.34 2.67 2.67 0 0 0 0 5.33"/><path fill="none" stroke="#000" stroke-width="1.01" d="M262.92 95.87a2.67 2.67 0 1 0 0-5.34 2.67 2.67 0 0 0 0 5.34z"/><path fill="#fff" d="M269.21 95.52a2.67 2.67 0 1 0 0-5.33 2.67 2.67 0 0 0 0 5.33"/><path fill="none" stroke="#000" stroke-width="1.01" d="M269.21 95.5a2.67 2.67 0 1 0 0-5.34 2.67 2.67 0 0 0 0 5.34z"/><path fill="#fff" d="M274.87 96.02a2.67 2.67 0 1 0 0-5.33 2.67 2.67 0 0 0 0 5.33"/><path fill="none" stroke="#000" stroke-width="1.01" d="M274.87 96a2.67 2.67 0 1 0 0-5.33 2.67 2.67 0 0 0 0 5.33z"/><path fill="#fff" d="M291 94.01a2.67 2.67 0 1 0 0-5.33 2.67 2.67 0 0 0 0 5.33"/><path fill="none" stroke="#000" stroke-width="1.01" d="M291 93.99a2.67 2.67 0 1 0 0-5.34 2.67 2.67 0 0 0 0 5.34z"/><path fill="#fff" d="M296.15 95.4a2.67 2.67 0 1 0 0-5.34 2.67 2.67 0 0 0 0 5.33"/><path fill="none" stroke="#000" stroke-width="1.01" d="M296.15 95.37a2.67 2.67 0 1 0 0-5.34 2.67 2.67 0 0 0 0 5.34z"/><path fill="#fff" d="M296.15 115.14a2.67 2.67 0 1 0 0-5.34 2.67 2.67 0 0 0 0 5.34"/><path fill="none" stroke="#000" stroke-width="1.01" d="M296.15 115.11a2.67 2.67 0 1 0 0-5.34 2.67 2.67 0 0 0 0 5.34z"/><path fill="#fff" d="M351.29 125.5a2.67 2.67 0 1 0 0-5.33 2.67 2.67 0 0 0 0 5.34"/><path fill="none" stroke="#000" stroke-width="1.01" d="M351.29 125.48a2.67 2.67 0 1 0 0-5.33 2.67 2.67 0 0 0 0 5.33z"/><path fill="#fff" d="M352.67 118.88a2.67 2.67 0 1 0 0-5.34 2.67 2.67 0 0 0 0 5.34"/><path fill="none" stroke="#000" stroke-width="1.01" d="M352.67 118.85a2.67 2.67 0 1 0 0-5.33 2.67 2.67 0 0 0 0 5.33z"/><path fill="#fff" d="M351.54 111.96a2.67 2.67 0 1 0 0-5.34 2.67 2.67 0 0 0 0 5.34"/><path fill="none" stroke="#000" stroke-width="1.01" d="M351.54 111.93a2.67 2.67 0 1 0 0-5.33 2.67 2.67 0 0 0 0 5.33z"/><path fill="#fff" d="M348.65 105.43a2.67 2.67 0 1 0 0-5.34 2.67 2.67 0 0 0 0 5.34"/><path fill="none" stroke="#000" stroke-width="1.01" d="M348.65 105.4a2.67 2.67 0 1 0 0-5.34 2.67 2.67 0 0 0 0 5.34z"/><path fill="#fff" d="M343.74 100.9a2.67 2.67 0 1 0 0-5.34 2.67 2.67 0 0 0 0 5.33"/><path fill="none" stroke="#000" stroke-width="1.01" d="M343.74 100.87a2.67 2.67 0 1 0 0-5.33 2.67 2.67 0 0 0 0 5.33z"/><path fill="#fff" d="M337.83 98a2.67 2.67 0 1 0 0-5.33 2.67 2.67 0 0 0 0 5.33"/><path fill="none" stroke="#000" stroke-width="1.01" d="M337.83 97.98a2.67 2.67 0 1 0 0-5.33 2.67 2.67 0 0 0 0 5.33z"/><path fill="#fff" d="M331.11 96.46a2.67 2.67 0 1 0 0-5.33 2.67 2.67 0 0 0 0 5.33"/><path fill="none" stroke="#000" stroke-width="1.01" d="M331.11 96.44a2.67 2.67 0 1 0 0-5.33 2.67 2.67 0 0 0 0 5.33z"/><path fill="#fff" d="M324.94 95.96a2.67 2.67 0 1 0 0-5.33 2.67 2.67 0 0 0 0 5.33"/><path fill="none" stroke="#000" stroke-width="1.01" d="M324.94 95.94a2.67 2.67 0 1 0 0-5.33 2.67 2.67 0 0 0 0 5.33z"/><path fill="#fff" d="M319.36 95.22a2.67 2.67 0 1 0 0-5.33 2.67 2.67 0 0 0 0 5.33"/><path fill="none" stroke="#000" stroke-width="1.01" d="M319.36 95.2a2.67 2.67 0 1 0 0-5.33 2.67 2.67 0 0 0 0 5.33z"/><path fill="#fff" d="M322.97 117.06a2.67 2.67 0 1 0 0-5.34 2.67 2.67 0 0 0 0 5.34"/><path fill="none" stroke="#000" stroke-width="1.01" d="M322.97 117.03a2.67 2.67 0 1 0 0-5.34 2.67 2.67 0 0 0 0 5.34z"/><path fill="#fff" d="M324.35 111.9a2.67 2.67 0 1 0 0-5.34 2.67 2.67 0 0 0 0 5.34"/><path fill="none" stroke="#000" stroke-width="1.01" d="M324.35 111.87a2.67 2.67 0 1 0 0-5.33 2.67 2.67 0 0 0 0 5.33z"/><path fill="#fff" d="M301.94 94.82a2.67 2.67 0 1 0 0-5.33 2.67 2.67 0 0 0 0 5.33"/><path fill="none" stroke="#000" stroke-width="1.01" d="M301.94 94.8a2.67 2.67 0 1 0 0-5.34 2.67 2.67 0 0 0 0 5.34z"/><path fill="#fff" d="M288.89 94.1a2.67 2.67 0 1 0 0-5.33 2.67 2.67 0 0 0 0 5.33"/><path fill="none" stroke="#000" stroke-width="1.01" d="M288.89 94.08a2.67 2.67 0 1 0 0-5.33 2.67 2.67 0 0 0 0 5.33z"/><path fill="#fff" d="M285.74 93.97a2.67 2.67 0 1 0 0-5.33 2.67 2.67 0 0 0 0 5.33"/><path fill="none" stroke="#000" stroke-width="1.01" d="M285.74 93.95a2.67 2.67 0 1 0 0-5.33 2.67 2.67 0 0 0 0 5.33z"/><path fill="#fff" d="M268.8 117.12a2.67 2.67 0 1 0 0-5.34 2.67 2.67 0 0 0 0 5.34"/><path fill="none" stroke="#000" stroke-width="1.01" d="M268.8 117.09a2.67 2.67 0 1 0 0-5.34 2.67 2.67 0 0 0 0 5.34z"/><path fill="#fff" d="M268.02 110.74a2.67 2.67 0 1 0 0-5.34 2.67 2.67 0 0 0 0 5.34"/><path fill="none" stroke="#000" stroke-width="1.01" d="M268.02 110.71a2.67 2.67 0 1 0 0-5.34 2.67 2.67 0 0 0 0 5.34z"/><path fill="#fff" d="M269.9 104.58a2.67 2.67 0 1 0 0-5.34 2.67 2.67 0 0 0 0 5.34"/><path fill="none" stroke="#000" stroke-width="1.01" d="M269.9 104.55a2.67 2.67 0 1 0 0-5.33 2.67 2.67 0 0 0 0 5.33z"/><path fill="#fff" d="M281.62 94.57a2.67 2.67 0 1 0 0-5.33 2.67 2.67 0 0 0 0 5.33"/><path fill="none" stroke="#000" stroke-width="1.01" d="M281.62 94.55a2.67 2.67 0 1 0 0-5.33 2.67 2.67 0 0 0 0 5.33z"/><path fill="#fff" d="M277.19 96.4a2.67 2.67 0 1 0 0-5.33 2.67 2.67 0 0 0 0 5.33"/><path fill="none" stroke="#000" stroke-width="1.01" d="M277.19 96.38a2.67 2.67 0 1 0 0-5.33 2.67 2.67 0 0 0 0 5.33z"/><path fill="#fff" d="M272.95 99.98a2.67 2.67 0 1 0 0-5.33 2.67 2.67 0 0 0 0 5.33"/><path fill="none" stroke="#000" stroke-width="1.01" d="M272.95 99.96a2.67 2.67 0 1 0 0-5.34 2.67 2.67 0 0 0 0 5.34z"/><path fill="#fff" d="M296.15 98.41a2.67 2.67 0 1 0 0-5.34 2.67 2.67 0 0 0 0 5.34"/><path fill="none" stroke="#000" stroke-width="1.01" d="M296.15 98.39a2.67 2.67 0 1 0 0-5.34 2.67 2.67 0 0 0 0 5.34z"/><path fill="#fff" d="M296.15 103.44a2.67 2.67 0 1 0 0-5.33 2.67 2.67 0 0 0 0 5.33"/><path fill="none" stroke="#000" stroke-width="1.01" d="M296.15 103.42a2.67 2.67 0 1 0 0-5.34 2.67 2.67 0 0 0 0 5.34z"/><path fill="#fff" d="M296.15 108.85a2.67 2.67 0 1 0 0-5.34 2.67 2.67 0 0 0 0 5.34"/><path fill="none" stroke="#000" stroke-width="1.01" d="M296.15 108.82a2.67 2.67 0 1 0 0-5.34 2.67 2.67 0 0 0 0 5.34z"/><path fill="#fff" d="M305.39 94.13a2.67 2.67 0 1 0 0-5.33 2.67 2.67 0 0 0 0 5.33"/><path fill="none" stroke="#000" stroke-width="1.01" d="M305.39 94.11a2.67 2.67 0 1 0 0-5.34 2.67 2.67 0 0 0 0 5.34z"/><path fill="#fff" d="M309.04 93.38a2.67 2.67 0 1 0 0-5.33 2.67 2.67 0 0 0 0 5.33"/><path fill="none" stroke="#000" stroke-width="1.01" d="M309.04 93.36a2.67 2.67 0 1 0 0-5.34 2.67 2.67 0 0 0 0 5.34z"/><path fill="#fff" d="M313.16 94.04a2.67 2.67 0 1 0 0-5.33 2.67 2.67 0 0 0 0 5.33"/><path fill="none" stroke="#000" stroke-width="1.01" d="M313.16 94.02a2.67 2.67 0 1 0 0-5.34 2.67 2.67 0 0 0 0 5.34z"/><path fill="#fff" d="M323.47 105.36a2.67 2.67 0 1 0 0-5.34 2.67 2.67 0 0 0 0 5.34"/><path fill="none" stroke="#000" stroke-width="1.01" d="M323.47 105.33a2.67 2.67 0 1 0 0-5.34 2.67 2.67 0 0 0 0 5.34z"/><path fill="#fff" d="M317.31 96.43a2.67 2.67 0 1 0 0-5.33 2.67 2.67 0 0 0 0 5.33"/><path fill="none" stroke="#000" stroke-width="1.01" d="M317.31 96.41a2.67 2.67 0 1 0 0-5.33 2.67 2.67 0 0 0 0 5.33z"/><path fill="#fff" d="M321.08 100.07a2.67 2.67 0 1 0 0-5.33 2.67 2.67 0 0 0 0 5.33"/><path fill="none" stroke="#000" stroke-width="1.01" d="M321.08 100.05a2.67 2.67 0 1 0 0-5.33 2.67 2.67 0 0 0 0 5.33z"/><path fill="#fff" d="m295.98 140.02-7.04 3.52 6.34 3.99 7.5-3.75-6.8-3.76"/><path fill="none" stroke="#000" stroke-width=".5" d="m295.98 139.99-7.04 3.52 6.34 3.99 7.5-3.75-6.8-3.76"/><path fill="#fff" d="m280.59 140.76-10.56 1.63s-.13 5.66.38 7.04l10.8-1.5s.51-5.29-.62-7.17"/><path fill="none" stroke="#000" stroke-width=".5" d="m280.59 140.73-10.56 1.63s-.13 5.66.38 7.05l10.8-1.52s.51-5.27-.62-7.16z"/><path fill="#058e6e" fill-opacity=".94" d="M279.41 142.77s-6.37.58-7.96 1.17l.08 3.86s4.2-.76 8.05-1.1l-.17-3.93"/><path fill="none" stroke="#000" stroke-width=".5" d="M279.41 142.74s-6.37.59-7.96 1.17l.08 3.86s4.2-.75 8.05-1.1l-.17-3.93"/><path fill="#fff" d="m310.7 141.06 10.56 1.63s.13 5.66-.38 7.04l-10.8-1.5s-.51-5.29.62-7.17"/><path fill="none" stroke="#000" stroke-width=".5" d="m310.7 141.03 10.56 1.64s.13 5.65-.38 7.04l-10.8-1.51s-.51-5.28.62-7.17z"/><path fill="#058e6e" fill-opacity=".94" d="M311.88 143.08s6.37.59 7.96 1.17l-.08 3.86s-4.2-.76-8.05-1.1l.17-3.93"/><path fill="none" stroke="#000" stroke-width=".5" d="M311.88 143.05s6.37.59 7.96 1.17l-.08 3.86s-4.2-.76-8.05-1.1l.17-3.93"/><path fill="none" stroke="#000" stroke-width=".5" d="M254.18 145.76s37.05-13.76 84.16 1.16m-82.65 6.76s35.83-13.4 80.03.6m-79.86-9.02 7.2 2.09-5.02 5.37"/><path fill="red" d="m256.03 151.74 4.1-3.44-4.69-.92s.64.73.51 1.4c-.13.66.04 2.37.08 2.96"/><path fill="none" stroke="#000" stroke-width=".5" d="m256.03 151.71 4.1-3.44-4.69-.92s.64.73.51 1.4c-.13.66.04 2.37.08 2.96zm81.52-5.07-7.67 1.38 5.16 6.04"/><path fill="red" d="m335.28 151.95-2.9-3.02 4.16-.38s-1.14.76-1.14 1.39c0 .63.13 1.5-.12 2.01"/><path fill="none" stroke="#000" stroke-width=".5" d="m335.28 151.92-2.9-3.02 4.16-.38s-1.14.76-1.14 1.39c0 .63.13 1.5-.12 2.01zm-70.03-6.13c.65 0 1.18-.43 1.18-.95s-.53-.95-1.18-.95c-.66 0-1.19.43-1.19.95s.53.95 1.19.95zm20.6-2.35c.66 0 1.2-.42 1.2-.95 0-.52-.54-.94-1.2-.94-.65 0-1.18.42-1.18.94 0 .53.53.95 1.19.95zm0 3.35c.66 0 1.2-.42 1.2-.94 0-.53-.54-.95-1.2-.95-.65 0-1.18.42-1.18.95 0 .52.53.94 1.19.94zm20.3-3.18c.65 0 1.18-.42 1.18-.95 0-.52-.53-.95-1.19-.95-.65 0-1.18.43-1.18.95 0 .53.53.95 1.18.95zm20.1 3.69c.66 0 1.2-.43 1.2-.95s-.54-.95-1.2-.95c-.64 0-1.18.43-1.18.95s.54.95 1.19.95zm-.32 2.68c.65 0 1.18-.43 1.18-.95s-.53-.95-1.18-.95c-.66 0-1.2.43-1.2.95s.54.95 1.2.95zm-19.79-3.02c.66 0 1.19-.42 1.19-.95 0-.52-.53-.94-1.19-.94-.65 0-1.18.42-1.18.94 0 .53.53.95 1.18.95zm-39.9 3.02c.66 0 1.19-.43 1.19-.95s-.53-.95-1.18-.95c-.66 0-1.2.43-1.2.95s.54.95 1.2.95z"/><path fill="#fc0" d="M253.51 134.98s.17 7.2 4.86 6.2c4.7-1 4.2-6.87 4.53-7.2.33-.34.84-.34.84-.34s.67 5.7 5.02 5.03c4.36-.67 4.2-7.72 3.7-8.89l1-.34s1.67 8.22 6.7 7.05c5.03-1.18 4.53-6.37 4.53-6.37h.39s1.12 5.53 5.14 5.2c4.02-.34 4.86-1.68 4.36-7.22l2.68-.5s-1 8.05 3.86 7.88c4.86-.17 5.03-4.02 5.36-4.7h.73s.28 5.7 4.3 5.7 4.86-4.86 4.86-6.7l3.93.18s-4.1 7.53 1.94 8.54c6.03 1 6.2-4.86 6.2-4.86h1.18s-.17 7.54 3.18 7.7c3.35.18 5.36-1 5.7-6.53l1.84.67s-1.6 8.94-7.88 7.37c-3.35-.83-4.36-4.69-4.19-5.7 0 0-2.34 4.2-6.87 2.86-4.53-1.34-4.02-4.53-4.02-5.54 0 0-2.72 5-6.54 3.86-3.35-1-4.7-2.18-4.7-4.53 0 0-1.67 3.86-5.02 3.7-3.36-.18-5.03-2.19-5.2-4.03 0 0-.67 3.6-5.2 3.85-3.01.17-4.7-1.34-5.36-3.35 0 0-.87 3.65-5.2 4.2-2.68.33-5.36-1.18-6.03-3.7 0 0-.67 4.86-5.03 5.54-4.36.67-5.37-2.35-5.37-2.35s-.83 3.86-4.35 4.7c-3.53.83-5.87-.68-6.71-4.2-.84-3.52-.5-5.03-.5-5.03l1.34 1.85"/><path fill="#bcac0b" stroke="#000" stroke-width=".65" d="M253.51 134.95s.17 7.2 4.86 6.2c4.7-1 4.2-6.87 4.53-7.2.33-.34.84-.34.84-.34s.67 5.7 5.02 5.03c4.36-.67 4.2-7.71 3.7-8.89l1-.33s1.67 8.21 6.7 7.04c5.03-1.18 4.53-6.37 4.53-6.37h.39s1.12 5.53 5.14 5.2c4.02-.34 4.86-1.68 4.36-7.21l2.68-.5s-1 8.04 3.86 7.87c4.86-.17 5.03-4.02 5.36-4.7h.73s.28 5.7 4.3 5.7 4.86-4.85 4.86-6.7l3.93.18s-4.1 7.53 1.94 8.54c6.03 1 6.2-4.86 6.2-4.86h1.18s-.17 7.54 3.18 7.71c3.35.17 5.36-1 5.7-6.54l1.84.67s-1.6 8.94-7.88 7.38c-3.35-.84-4.36-4.7-4.19-5.7 0 0-2.34 4.19-6.87 2.85-4.53-1.34-4.02-4.53-4.02-5.53 0 0-2.72 5-6.54 3.85-3.35-1-4.7-2.18-4.7-4.53 0 0-1.67 3.86-5.02 3.7-3.36-.18-5.03-2.19-5.2-4.03 0 0-.67 3.6-5.2 3.85-3.01.17-4.7-1.33-5.36-3.35 0 0-.87 3.65-5.2 4.2-2.68.33-5.36-1.18-6.03-3.7 0 0-.67 4.86-5.03 5.54-4.36.67-5.37-2.35-5.37-2.35s-.83 3.86-4.35 4.7c-3.53.83-5.87-.67-6.71-4.2-.84-3.52-.5-5.02-.5-5.02l1.34 1.84z"/><path fill="#fc0" d="M263.24 135.29a1.66 1.66 0 1 0 0-3.32 1.66 1.66 0 0 0 0 3.32"/><path fill="#bcac0b" stroke="#000" stroke-width=".65" d="M263.24 135.26a1.66 1.66 0 1 0 0-3.32 1.66 1.66 0 0 0 0 3.32z"/><path fill="#fc0" d="M285.08 131.8a1.66 1.66 0 1 0 0-3.32 1.66 1.66 0 0 0 0 3.32"/><path fill="#bcac0b" stroke="#000" stroke-width=".65" d="M285.08 131.77a1.66 1.66 0 1 0 0-3.32 1.66 1.66 0 0 0 0 3.32z"/><path fill="#fc0" d="M307.22 132.44a1.66 1.66 0 1 0 0-3.32 1.66 1.66 0 0 0 0 3.32"/><path fill="#bcac0b" stroke="#000" stroke-width=".65" d="M307.22 132.41a1.66 1.66 0 1 0 0-3.32 1.66 1.66 0 0 0 0 3.32z"/><path fill="#fc0" d="M329.19 135.98a1.66 1.66 0 1 0 0-3.32 1.66 1.66 0 0 0 0 3.32"/><path fill="#bcac0b" stroke="#000" stroke-width=".65" d="M329.19 135.95a1.66 1.66 0 1 0 0-3.32 1.66 1.66 0 0 0 0 3.32z"/><path fill="#fc0" d="M295.17 129.95h-1.5c-.39 1.5-3.6 2.45-3.6 2.45-.37-1.2.45-2.9.45-2.9-3.71-.94-3.71-2.26-3.71-2.26.56-1.25 3.96-1.44 3.96-1.44-.88-1.13-.7-2.96-.7-2.96 2.27.13 4.16 2.4 4.16 2.4s-2.27-1.14-2.01-5.16c0 0 1.25-.06 2 .75 0 0 0-4.33 1.83-4.84h.19c1.82.5 1.82 4.84 1.82 4.84.75-.81 2.01-.75 2.01-.75.25 4.02-2.01 5.15-2.01 5.15s1.89-2.26 4.15-2.39c0 0 .19 1.83-.7 2.96 0 0 3.4.19 3.97 1.44 0 0 0 1.32-3.71 2.27 0 0 .81 1.7.44 2.89 0 0-3.2-.94-3.59-2.45h-3.45"/><path fill="#bcac0b" stroke="#000" stroke-width=".65" d="M295.17 129.92h-1.5c-.39 1.5-3.6 2.45-3.6 2.45-.37-1.2.45-2.89.45-2.89-3.71-.94-3.71-2.26-3.71-2.26.56-1.26 3.96-1.45 3.96-1.45-.88-1.13-.7-2.95-.7-2.95 2.27.13 4.16 2.39 4.16 2.39s-2.27-1.13-2.01-5.16c0 0 1.25-.06 2 .76 0 0 0-4.34 1.83-4.84h.19c1.82.5 1.82 4.84 1.82 4.84.75-.82 2.01-.76 2.01-.76.25 4.02-2.01 5.16-2.01 5.16s1.89-2.26 4.15-2.4c0 0 .19 1.83-.7 2.96 0 0 3.4.19 3.97 1.45 0 0 0 1.32-3.71 2.26 0 0 .81 1.7.44 2.9 0 0-3.2-.95-3.59-2.46h-3.45z"/><path fill="#fff" d="M296.03 130.8a3.04 3.04 0 1 0 0-6.08 3.04 3.04 0 0 0 0 6.08"/><path fill="none" stroke="#000" stroke-width=".4" d="M296.03 130.77a3.04 3.04 0 1 0 0-6.07 3.04 3.04 0 0 0 0 6.07z"/><path fill="#fff" d="M296.03 129.43a1.66 1.66 0 1 0 0-3.32 1.66 1.66 0 0 0 0 3.32"/><path fill="none" stroke="#000" stroke-width=".25" d="M296.03 129.4a1.66 1.66 0 1 0 0-3.32 1.66 1.66 0 0 0 0 3.32z"/><path fill="#fc0" d="m319.07 131.9 1.47.33c.05 1.55 2.99 3.15 2.99 3.15.62-1.09.18-2.92.18-2.92 3.82-.14 4.1-1.43 4.1-1.43-.29-1.35-3.57-2.25-3.57-2.25 1.1-.92 1.3-2.74 1.3-2.74-2.24-.36-4.56 1.46-4.56 1.46s2.45-.63 3.06-4.62c0 0-1.22-.32-2.13.32 0 0 .92-4.24-.76-5.12l-.18-.04c-1.9.1-2.8 4.35-2.8 4.35-.57-.96-1.81-1.16-1.81-1.16-1.1 3.88.88 5.46.88 5.46s-1.37-2.61-3.56-3.21c0 0-.56 1.74.06 3.03 0 0-3.36-.53-4.18.58 0 0-.28 1.3 3.15 3 0 0-1.16 1.48-1.04 2.73 0 0 3.33-.24 4.02-1.64l1.47.32 1.91.4"/><path fill="#bcac0b" stroke="#000" stroke-width=".65" d="m319.07 131.88 1.47.32c.05 1.55 3 3.15 3 3.15.6-1.09.17-2.92.17-2.92 3.82-.14 4.1-1.43 4.1-1.43-.29-1.35-3.57-2.25-3.57-2.25 1.1-.92 1.3-2.74 1.3-2.74-2.24-.35-4.56 1.46-4.56 1.46s2.45-.63 3.06-4.61c0 0-1.22-.33-2.13.3 0 0 .92-4.23-.76-5.1l-.18-.05c-1.9.11-2.8 4.35-2.8 4.35-.57-.96-1.81-1.16-1.81-1.16-1.1 3.88.88 5.46.88 5.46s-1.37-2.6-3.56-3.2c0 0-.56 1.73.06 3.03 0 0-3.36-.54-4.18.57 0 0-.28 1.3 3.15 3 0 0-1.16 1.49-1.04 2.73 0 0 3.33-.24 4.02-1.64l1.47.32 1.91.41"/><path fill="#fff" d="M318.04 132.57a3.04 3.04 0 1 1 1.29-5.94 3.04 3.04 0 0 1-1.29 5.94"/><path fill="none" stroke="#000" stroke-width=".4" d="M318.04 132.54a3.04 3.04 0 1 1 1.28-5.94 3.04 3.04 0 0 1-1.28 5.94z"/><path fill="#fff" d="M318.34 131.22a1.66 1.66 0 1 1 .7-3.24 1.66 1.66 0 0 1-.7 3.24"/><path fill="none" stroke="#000" stroke-width=".25" d="M318.34 131.19a1.66 1.66 0 1 1 .7-3.24 1.66 1.66 0 0 1-.7 3.24z"/><path fill="#fc0" d="m272.23 131.62-1.5.2c-.17 1.54-3.23 2.9-3.23 2.9-.53-1.13.06-2.92.06-2.92-3.8-.45-3.98-1.76-3.98-1.76.4-1.32 3.74-1.96 3.74-1.96-1.02-1-1.08-2.83-1.08-2.83 2.26-.17 4.43 1.82 4.43 1.82s-2.39-.83-2.67-4.85c0 0 1.24-.22 2.1.49 0 0-.58-4.3 1.16-5.04l.19-.02c1.87.25 2.44 4.55 2.44 4.55.64-.9 1.9-1.01 1.9-1.01.78 3.95-1.32 5.37-1.32 5.37s1.57-2.49 3.8-2.91c0 0 .43 1.78-.3 3.02 0 0 3.4-.26 4.12.9 0 0 .18 1.32-3.38 2.74 0 0 1.04 1.57.82 2.8 0 0-3.3-.5-3.87-1.95l-3.43.46"/><path fill="#bcac0b" stroke="#000" stroke-width=".65" d="m272.23 131.59-1.5.2c-.17 1.54-3.23 2.9-3.23 2.9-.53-1.13.06-2.92.06-2.92-3.8-.45-3.98-1.76-3.98-1.76.4-1.32 3.74-1.95 3.74-1.95-1.02-1-1.08-2.84-1.08-2.84 2.26-.17 4.43 1.82 4.43 1.82s-2.39-.82-2.67-4.84c0 0 1.24-.23 2.1.48 0 0-.58-4.3 1.16-5.04l.19-.02c1.87.25 2.44 4.55 2.44 4.55.64-.9 1.9-1 1.9-1 .78 3.95-1.32 5.36-1.32 5.36s1.57-2.48 3.8-2.9c0 0 .43 1.77-.3 3.01 0 0 3.4-.26 4.12.91 0 0 .18 1.3-3.38 2.73 0 0 1.04 1.58.82 2.81 0 0-3.3-.51-3.87-1.96l-3.43.46"/><path fill="#fff" d="M273.19 132.36a3.04 3.04 0 1 0-.8-6.02 3.04 3.04 0 0 0 .8 6.02"/><path fill="none" stroke="#000" stroke-width=".4" d="M273.19 132.33a3.04 3.04 0 1 0-.8-6.02 3.04 3.04 0 0 0 .8 6.02z"/><path fill="#fff" d="M273.01 130.99a1.66 1.66 0 1 0-.43-3.29 1.66 1.66 0 0 0 .42 3.3"/><path fill="none" stroke="#000" stroke-width=".25" d="M273.01 130.96a1.66 1.66 0 1 0-.43-3.28 1.66 1.66 0 0 0 .43 3.28z"/><path fill="#fc0" d="M340.12 138.07s-.76-2-2.44-1.28-1.51.98-3.01.89c0 0-.6-1.8.15-2.58 0 0-2.4-.9-2.9-3 0 0 1.28-1.5 4.33-.94 0 0-.1-1.52.32-2.18 0 0 3.28 1.01 3.3 2.84 0 0-.99-3.59.74-6.2 0 0 1.54.67 1.44 2.3 0 0 .7-3.36 5.25-2.46 0 0-2.46 2.19-2.59 3.18-.12 1-2.17 2.7-2.2 3.27a3.56 3.56 0 0 1-.9 2.15c-.6.6-.66 1.6-.6 1.92.03.32-.11 1.7-.89 2.09"/><path fill="#bcac0b" stroke="#000" stroke-width=".65" d="M340.12 138.04s-.76-2-2.44-1.28-1.51.98-3.01.89c0 0-.6-1.8.15-2.57 0 0-2.4-.9-2.9-3.01 0 0 1.28-1.5 4.33-.94 0 0-.1-1.51.32-2.18 0 0 3.28 1.01 3.3 2.84 0 0-.99-3.59.74-6.19 0 0 1.54.66 1.44 2.3 0 0 .7-3.37 5.25-2.46 0 0-2.46 2.18-2.59 3.18-.12 1-2.17 2.7-2.2 3.27a3.55 3.55 0 0 1-.9 2.15c-.6.59-.66 1.6-.6 1.91.03.32-.11 1.7-.89 2.09z"/><path fill="#fff" d="M337.66 134.09a3.04 3.04 0 0 1 4.8-1.85 3.4 3.4 0 0 1-.84 1.83c-.6.6-.66 1.6-.62 1.92.03.25-.05 1.14-.47 1.71a3.04 3.04 0 0 1-2.87-3.62"/><path fill="none" stroke="#000" stroke-width=".4" d="M337.66 134.06a3.04 3.04 0 0 1 4.8-1.84 3.4 3.4 0 0 1-.84 1.82c-.6.6-.66 1.6-.62 1.92.03.25-.05 1.15-.47 1.71a3.04 3.04 0 0 1-2.87-3.61z"/><path fill="#fff" d="M339.02 134.35a1.66 1.66 0 0 1 2.93-.7c-.1.15-.2.3-.33.42-.6.59-.66 1.6-.61 1.91v.3a1.65 1.65 0 0 1-1.99-1.93"/><path fill="none" stroke="#000" stroke-width=".25" d="M339.02 134.32a1.66 1.66 0 0 1 2.93-.7c-.1.15-.2.3-.33.42-.6.6-.66 1.6-.61 1.91v.3a1.65 1.65 0 0 1-1.99-1.93z"/><path fill="#fc0" d="M252.11 137.24s.88-1.95 2.51-1.13c1.64.81 1.45 1.07 2.96 1.07 0 0 .69-1.76 0-2.58 0 0 2.45-.76 3.08-2.83 0 0-1.2-1.57-4.28-1.2 0 0 .2-1.5-.18-2.2 0 0-3.34.82-3.46 2.64 0 0 1.2-3.52-.38-6.22 0 0-1.57.57-1.57 2.2 0 0-.5-3.4-5.1-2.77 0 0 2.33 2.33 2.4 3.34.06 1 2 2.83 2 3.4 0 .56.2 1.56.76 2.2.57.62.57 1.63.5 1.94-.06.31 0 1.7.76 2.14"/><path fill="#bcac0b" stroke="#000" stroke-width=".65" d="M252.11 137.21s.88-1.95 2.51-1.13c1.64.82 1.45 1.07 2.96 1.07 0 0 .69-1.76 0-2.58 0 0 2.45-.75 3.08-2.83 0 0-1.2-1.57-4.28-1.2 0 0 .2-1.5-.18-2.2 0 0-3.34.82-3.46 2.65 0 0 1.2-3.52-.38-6.23 0 0-1.57.57-1.57 2.2 0 0-.5-3.4-5.1-2.76 0 0 2.33 2.32 2.4 3.33.06 1 2 2.83 2 3.4 0 .56.2 1.57.76 2.2.57.62.57 1.63.5 1.94-.06.31 0 1.7.76 2.14z"/><path fill="#fff" d="M254.8 133.4a3.04 3.04 0 0 0-4.68-2.12c.05.57.26 1.35.73 1.87.57.63.57 1.64.5 1.95-.04.25-.01 1.15.37 1.74.15 0 .31 0 .47-.02a3.03 3.03 0 0 0 2.61-3.41"/><path fill="none" stroke="#000" stroke-width=".4" d="M254.8 133.38a3.04 3.04 0 0 0-4.68-2.13c.05.57.26 1.35.73 1.88.57.62.57 1.63.5 1.94-.04.25-.01 1.15.37 1.74.15 0 .31 0 .47-.02a3.03 3.03 0 0 0 2.61-3.41z"/><path fill="#fff" d="M253.44 133.59a1.66 1.66 0 0 0-2.89-.87c.1.15.19.3.3.43.57.63.57 1.64.5 1.95v.3a1.66 1.66 0 0 0 2.1-1.82"/><path fill="none" stroke="#000" stroke-width=".25" d="M253.44 133.56a1.66 1.66 0 0 0-2.89-.87c.1.15.19.3.3.44.57.62.57 1.63.5 1.94v.3c.2.07.43.09.66.06a1.67 1.67 0 0 0 1.43-1.87z"/><path fill="none" stroke="#000" stroke-width="1.51" d="M257.2 155.56s33.75-13.22 76.38.28"/><path fill="none" stroke="#000" stroke-width=".5" d="M338.34 145.04c-47.11-14.92-84.66-.84-84.66-.84"/><path fill="red" d="m295.93 141.77-3.77 1.88 3.4 2.14 4.02-2.01-3.65-2.01"/><path fill="none" stroke="#000" stroke-width=".5" d="m295.93 141.74-3.77 1.89 3.4 2.13 4.02-2.01-3.65-2.01"/></svg>