<svg xmlns="http://www.w3.org/2000/svg" viewBox="0 0 600 400"><path fill="#c8e1ed" d="M0 0h600v400H0z"/><g fill="#009"><path fill="#11119a" d="M290.03 55.65c-4.84 4.84-5.54 43.6-1.04 50.86 1.73 2.77 5.54 3.8 8.65 2.77 4.15-1.73 5.54-7.27 5.54-24.57 0-30.79-3.46-38.75-13.15-29.06zm75.77 21.8c-9.34 19.72-11.07 37.36-3.46 39.1 6.23 1.03 29.06-42.22 25.95-49.83-3.8-10.38-15.23-5.19-22.5 10.73zm-168.5-7.61c-2.76 7.6 20.42 54.66 26.3 53.28 13.15-2.43-3.8-57.78-17.64-57.78-3.8 0-7.61 2.07-8.65 4.5Zm76.12 71.61c-17.3 2.42-44.28 18-60.54 34.6-33.9 34.6-22.5 119.7 19.72 146.35 21.8 13.84 37.02 17.3 69.2 15.22 43.24-2.42 73.34-21.45 95.14-59.5C415.27 246.27 408 202 379.29 168.43c-21.45-24.57-58.81-34.25-105.87-26.99z"/><path fill="#ff7" d="M338.81 159.1c16.26 4.5 38.75 24.22 47.75 41.51 8.3 16.61 9 50.86 1.03 65.74-7.6 14.88-28.37 37.37-40.47 43.25-47.4 24.56-95.84 19.03-121.44-14.19-13.5-17.99-17.65-31.83-17.65-60.54.35-26.64 6.58-39.1 28.37-55.7 27.68-21.8 68.5-29.76 102.41-20.07z"/><path fill="#11119a" d="M345.39 218.6c-1.73 2.43-5.2 9.7-7.27 16.61-7.27 23.18-34.6 41.52-49.82 33.9-10.38-5.18-22.49-19.37-30.45-35.28-7.26-13.84-17.64-16.6-19.72-4.85-1.73 9 18.34 38.4 33.22 48.79 30.79 21.45 70.58 2.42 87.18-41.17 5.2-13.84-5.19-28.03-13.14-18z"/></g></svg>